<svg width="241" height="242" viewBox="0 0 241 242" fill="none" xmlns="http://www.w3.org/2000/svg">
<g filter="url(#filter0_d_5_3568)">
<path d="M184 120.993C184 156.612 155.351 185.49 120 185.49C106.034 185.49 93.1173 180.988 82.6011 173.338C80.9241 172.125 79.3239 170.828 77.775 169.461C75.1379 167.126 72.6929 164.578 70.4654 161.837C69.7614 160.972 69.0829 160.095 68.43 159.192C67.8028 158.341 67.2011 157.47 66.6251 156.586C65.7034 155.186 64.8329 153.748 64.02 152.271C63.4183 151.168 62.8359 150.045 62.2918 148.904C61.7222 147.704 61.1781 146.485 60.6853 145.24C57.6578 137.751 56 129.566 56 120.993C56 85.3681 84.6557 56.49 120 56.49C123.066 56.49 126.081 56.7093 129.031 57.1286C130.951 57.4059 132.833 57.7607 134.696 58.1993C135.682 58.4315 136.654 58.6896 137.627 58.9669C139.144 59.4055 140.642 59.8958 142.108 60.4376C142.658 60.644 143.209 60.8504 143.746 61.0697C145.743 61.876 147.683 62.7726 149.571 63.766C152.624 65.3721 155.53 67.2169 158.269 69.281C159.217 69.997 160.151 70.7388 161.067 71.5063C175.09 83.3427 184.006 101.113 184.006 120.987L184 120.993Z" fill="#0E0E0E"/>
<path d="M120 179.478C152.055 179.478 178.041 153.291 178.041 120.987C178.041 88.6828 152.055 62.4952 120 62.4952C87.9448 62.4952 61.959 88.6828 61.959 120.987C61.959 153.291 87.9448 179.478 120 179.478Z" fill="#FDCB57"/>
<path d="M175.647 120.993C175.647 151.961 150.736 177.066 120 177.066C104.229 177.066 89.981 170.448 79.868 159.824C76.1364 155.915 72.9681 151.465 70.4911 146.595C69.1405 143.956 67.9948 141.202 67.0731 138.345C66.049 135.165 65.2937 131.862 64.8521 128.463C64.5257 126.018 64.3593 123.528 64.3593 121C64.3593 90.4058 88.6625 65.5269 118.874 64.927C119.245 64.927 119.622 64.9141 120 64.9141C123.028 64.9141 126.004 65.1592 128.903 65.6365C131.86 66.1074 134.741 66.8234 137.519 67.7587C142.709 69.4874 147.555 71.9708 151.933 75.0734C166.27 85.2197 175.641 102.003 175.641 121L175.647 120.993Z" fill="#0E0E0E"/>
<path d="M141.033 96.6046V103.977H107.417V118.129H134.965V125.205H107.417V145.375H98.9741V125.205H107.417V118.129H98.9741V96.6046H141.033Z" fill="#FDCB57"/>
</g>
<defs>
<filter id="filter0_d_5_3568" x="0" y="0.48999" width="240.006" height="241" filterUnits="userSpaceOnUse" color-interpolation-filters="sRGB">
<feFlood flood-opacity="0" result="BackgroundImageFix"/>
<feColorMatrix in="SourceAlpha" type="matrix" values="0 0 0 0 0 0 0 0 0 0 0 0 0 0 0 0 0 0 127 0" result="hardAlpha"/>
<feOffset/>
<feGaussianBlur stdDeviation="28"/>
<feComposite in2="hardAlpha" operator="out"/>
<feColorMatrix type="matrix" values="0 0 0 0 0.980392 0 0 0 0 0.740392 0 0 0 0 0.180392 0 0 0 0.48 0"/>
<feBlend mode="normal" in2="BackgroundImageFix" result="effect1_dropShadow_5_3568"/>
<feBlend mode="normal" in="SourceGraphic" in2="effect1_dropShadow_5_3568" result="shape"/>
</filter>
</defs>
</svg>
