<svg width="128" height="129" viewBox="0 0 128 129" fill="none" xmlns="http://www.w3.org/2000/svg">
<g clip-path="url(#clip0_5_3557)">
<path d="M128 64.9929C128 100.336 99.3507 128.99 64 128.99C50.0338 128.99 37.1173 124.522 26.6011 116.932C24.9241 115.728 23.3239 114.442 21.775 113.085C19.1379 110.768 16.6929 108.24 14.4654 105.52C13.7614 104.662 13.0829 103.792 12.43 102.896C11.8028 102.051 11.2011 101.187 10.6251 100.31C9.70337 98.921 8.83288 97.4938 8.02 96.0281C7.41834 94.9336 6.83588 93.82 6.29183 92.6871C5.72217 91.4967 5.17812 90.287 4.68527 89.0517C1.65777 81.621 0 73.499 0 64.9929C0 29.644 28.6557 0.989746 64 0.989746C67.0659 0.989746 70.0806 1.20736 73.0313 1.62338C74.9515 1.89859 76.8333 2.25061 78.6959 2.68583C79.6816 2.91624 80.6545 3.17226 81.6274 3.44747C83.1443 3.88269 84.6421 4.36911 86.1078 4.90674C86.6583 5.11155 87.2087 5.31636 87.7464 5.53397C89.7434 6.33401 91.6828 7.22366 93.571 8.20931C96.6241 9.80299 99.53 11.6335 102.269 13.6816C103.217 14.392 104.151 15.1281 105.067 15.8897C119.09 27.6343 128.006 45.2672 128.006 64.9865L128 64.9929Z" fill="#EAE9E5"/>
<path d="M64 123.025C96.0551 123.025 122.041 97.0401 122.041 64.9865C122.041 32.933 96.0551 6.94844 64 6.94844C31.9448 6.94844 5.95898 32.933 5.95898 64.9865C5.95898 97.0401 31.9448 123.025 64 123.025Z" fill="#0E0E0E"/>
<path d="M119.647 64.993C119.647 95.7209 94.7359 120.631 64 120.631C48.2288 120.631 33.981 114.064 23.868 103.523C20.1364 99.6443 16.9681 95.2281 14.491 90.3958C13.1405 87.7781 11.9948 85.0452 11.0731 82.2098C10.049 79.0545 9.29372 75.7775 8.85207 72.4045C8.52564 69.9788 8.35922 67.5083 8.35922 64.9994C8.35922 34.6426 32.6625 9.9566 62.8735 9.36137C63.2447 9.36137 63.6223 9.34857 64 9.34857C67.0275 9.34857 70.0038 9.59178 72.9033 10.0654C75.8604 10.5326 78.7407 11.2431 81.5185 12.1711C86.7095 13.8864 91.5547 16.3505 95.9328 19.4291C110.27 29.4968 119.641 46.1504 119.641 64.9994L119.647 64.993Z" fill="#EAE9E5"/>
<path d="M85.0325 40.7933V48.1089H51.4164V62.1512H78.9647V69.1724H51.4164V89.1862H42.9739V69.1724H51.4164V62.1512H42.9739V40.7933H85.0325Z" fill="#0E0E0E"/>
</g>
<defs>
<clipPath id="clip0_5_3557">
<rect width="128" height="128" fill="white" transform="translate(0 0.989746)"/>
</clipPath>
</defs>
</svg>
